ply
format ascii 1.0
comment Small canonical 3DGS sample for the Vite sandbox
element vertex 7
property float x
property float y
property float z
property float f_dc_0
property float f_dc_1
property float f_dc_2
property float opacity
property float scale_0
property float scale_1
property float scale_2
property float rot_0
property float rot_1
property float rot_2
property float rot_3
end_header
-0.90 -0.35 0.00 1.595 -1.063 -0.886 2.442 -0.868 -1.715 -2.120 1 0 0 0
-0.45 0.35 0.15 1.772 0.284 -1.205 2.197 -1.386 -0.968 -1.833 1 0 0 0
0.00 -0.10 0.30 -0.886 1.134 -0.177 2.752 -0.968 -0.968 -1.715 1 0 0 0
0.45 0.38 0.05 -1.063 0.354 1.772 2.197 -1.204 -1.609 -2.120 1 0 0 0
0.90 -0.32 0.20 0.638 -0.638 1.630 2.442 -0.799 -1.833 -2.120 1 0 0 0
0.00 0.80 -0.05 1.595 -0.709 0.709 1.992 -1.715 -1.204 -2.120 1 0 0 0
0.00 -0.85 0.10 -1.205 1.241 1.418 1.992 -1.609 -1.139 -2.120 1 0 0 0
